PathFileType	4	(X/Y/Z)	Walk1_0-155.trc
DataRate	CameraRate	NumFrames	NumMarkers	Units	OrigDataRate	OrigDataStartFrame	OrigNumFrames
30	30	9	22	m	30	0	155
Frame#	Time	Hip			RHip			RKnee			RAnkle			RBigToe			RSmallToe			RHeel			LHip			LKnee			LAnkle			LBigToe			LSmallToe			LHeel			Neck			Head			Nose			RShoulder			RElbow			RWrist			LShoulder			LElbow			LWrist		
		X1	Y1	Z1	X2	Y2	Z2	X3	Y3	Z3	X4	Y4	Z4	X5	Y5	Z5	X6	Y6	Z6	X7	Y7	Z7	X8	Y8	Z8	X9	Y9	Z9	X10	Y10	Z10	X11	Y11	Z11	X12	Y12	Z12	X13	Y13	Z13	X14	Y14	Z14	X15	Y15	Z15	X16	Y16	Z16	X17	Y17	Z17	X18	Y18	Z18	X19	Y19	Z19	X20	Y20	Z20	X21	Y21	Z21	X22	Y22	Z22
1	0.0333333333333333	-2.5623649449583334	0.8395698016933824	0.38940676058232865	-2.556431243201438	0.806311021530094	0.48530786537634435	-2.548867257657655	0.4424592852365047	0.5036356382981348	-2.567440291103091	0.09007252285084898	0.5044922533931213	-2.4152013798827694	0.0024288143029283916	0.5528562027295632	-2.4565352775903144	-0.013552098671396257	0.6033078020842451	-2.602109622613233	0.02473978521591703	0.49231322263246846	-2.5646477257246594	0.8060476880609487	0.3074301614785579	-2.5455848117431685	0.4564533213389429	0.29247230474318064	-2.5657276620753398	0.08791314783888153	0.28209930042631376	-2.375547848305985	-0.0002268055252207732	0.2778307229940463	-2.412492891465577	-0.006662467941329269	0.20654229710230812	-2.6174130197951557	0.006654376423087938	0.2897223580448428	-2.559411192389753	1.5336256254659446	0.35174438074903064	-2.532859498625285	1.7936422079499013	0.366373200501847	-2.4303769249148237	1.6763697606500092	0.337936774771969	-2.5908752637228316	1.421732749565637	0.5370948496696186	-2.558648929176399	1.098987676191887	0.5874729686697995	-2.4679149611842566	0.8635027276641665	0.6072265104337325	-2.568557430496356	1.4071241127318201	0.2029616656531124	-2.5477910630053584	1.1032973934116934	0.1512453273895164	-2.4833666427916166	0.8607644686276069	0.1673511550800421
2	0.0666666666666666	-2.565835375154442	0.8418668098416122	0.3898080001076204	-2.55853216035384	0.8098855761407017	0.4849711697451388	-2.5527980818171305	0.4447556467674069	0.49997518655569173	-2.5665720885346377	0.09267871369571667	0.5067157969610359	-2.4175156167691605	-0.0011815111596604271	0.5432306450397936	-2.4589046412723534	-0.012487862960394029	0.6009747408192758	-2.6229556854414335	0.01477084190419629	0.49229311626090544	-2.5655585399077414	0.8086822080306177	0.30594382193812175	-2.544914055218244	0.4575994857897344	0.29142608146924204	-2.568168023241005	0.08794921529160078	0.2774826187448198	-2.3754565744265967	-0.0012950448073502604	0.2778994077003443	-2.4137515151504285	-0.0070194646373734956	0.2065601275497709	-2.6169658794602273	0.0074480772183971415	0.29339096678019827	-2.559627749701946	1.5328589526096106	0.3491674447865208	-2.5213331992620485	1.792195569167065	0.36925590463714814	-2.4290906125960916	1.6733636933873173	0.3387156428411272	-2.5895570811363444	1.421908663175662	0.5335417582024505	-2.5517341238698616	1.1000279182430495	0.5960456235997763	-2.4667979569159373	0.8625823951399492	0.606814390853863	-2.585257219310641	1.415174229966347	0.17749126440240767	-2.5468206968014813	1.1051692332293668	0.15010589632419294	-2.4816765731612227	0.8622090559920486	0.16587417511374475
3	0.1	-2.5687651697620346	0.8436877989710712	0.38982398081021974	-2.560348711029299	0.8129758378685668	0.4844880734166564	-2.555986725646078	0.4464664068212907	0.49740912582875685	-2.5657671304254226	0.09500911809404992	0.5086253102795104	-2.4193254071301795	-0.004139810250836733	0.5354922943490417	-2.4607996376384453	-0.011713489882189966	0.5990764192649155	-2.641051567406518	0.005988654414028619	0.4922366497905131	-2.566262590618067	0.8109280634088959	0.3045120825367947	-2.543973790279029	0.4586306013560927	0.2904735852173694	-2.569168553026376	0.08810584860856348	0.2750303651409961	-2.3752746952419344	-0.001994062718439462	0.2778293475308583	-2.4146852162764305	-0.0070502321854750746	0.20656103310116414	-2.616606132461733	0.007989095947600994	0.29638503825263585	-2.5594683576459345	1.532186283668062	0.34662464668825743	-2.5118832824732436	1.7911498460303552	0.37115898215385607	-2.4278119509964076	1.6709337368053079	0.33881720201700427	-2.588303872058515	1.4220875253518026	0.5300649974552869	-2.5455716107380377	1.1009490440194984	0.6036375972027267	-2.4658509483249698	0.8616790883115659	0.6062970685592886	-2.59829414627567	1.4216003603631695	0.15668153999675583	-2.5459644579865808	1.106607482762612	0.14875294298230826	-2.4801209297300737	0.8632591359258831	0.16412210719002485
4	0.1333333333333333	-2.5707978432788363	0.8447872554011238	0.38920874448173437	-2.5616069159672428	0.8152865839457178	0.4836726468985837	-2.5582914961728953	0.44745354155492323	0.496039768373251	-2.564893903808206	0.09688277528745912	0.5100110867920327	-2.4203740809943968	-0.0062081810752883625	0.5304675911738838	-2.461886898981783	-0.011323441720976189	0.597794925948841	-2.6543597178006237	-0.0006878417938518356	0.49215064076454706	-2.5666116714311484	0.8125508587060926	0.3030270040622279	-2.542681525261626	0.4594505712366822	0.2895792986299684	-2.568483482282408	0.08838374321728631	0.27517717451972273	-2.374948918616358	-0.002203039455814352	0.277566799625121	-2.415174327900536	-0.0066341180728356755	0.20650440443905133	-2.6163586059042787	0.008158049625995898	0.2983515350767095	-2.5587456150006647	1.531659029078892	0.34410153042157476	-2.5053542130575903	1.7906335659701063	0.37156776620803317	-2.4264993861843003	1.669279802633226	0.33818929068855635	-2.5871266274645923	1.422250533418078	0.5267363481566201	-2.5406937313439206	1.101617263671902	0.6090630961541094	-2.465093243168471	0.8608137424748389	0.6056093724203007	-2.606150228475757	1.4256248889746272	0.14243296636133557	-2.545288285347515	1.1073716133867721	0.1469669301837561	-2.4788282541086084	0.863711210378373	0.16197836446385955
5	0.1666666666666666	-2.571839382505063	0.8451681372726346	0.38789377186612745	-2.5621045452524487	0.8167742792062559	0.48238147979748236	-2.560614052437313	0.44812252489510707	0.49463736426149424	-2.5638306085809828	0.09823559855444197	0.5108791517152291	-2.4206734251808024	-0.007508936453600539	0.527890323593217	-2.4620752547380893	-0.01122676022220548	0.5970836979138359	-2.6623470008928933	-0.004911676512005687	0.49205207923499505	-2.566540075814687	0.8135018326690038	0.3012694032057521	-2.5411908823515628	0.4600056402391278	0.2886519744658127	-2.5669383978659055	0.08864836460269546	0.2767810037976577	-2.3745090359375816	-0.002047311441734	0.2771296000611019	-2.4152673633675112	-0.005882089734988601	0.20639232327993043	-2.6162156839862485	0.007994474191304533	0.29930373116665027	-2.5574772724388346	1.5312860787259763	0.341570933779023	-2.5014079917766168	1.7905495588051352	0.3704067097118092	-2.425131930730682	1.668333173508284	0.3369608344261648	-2.5859517027115673	1.422369248287514	0.5235761785601235	-2.537188057196931	1.1019665652327175	0.6116353646274031	-2.4644158341559104	0.8600358851025135	0.6047351676884397	-2.609462767442918	1.4274094454994797	0.13381543737654025	-2.544793622416528	1.1074607307927866	0.14459369984761453	-2.4779100689241105	0.8635823898319325	0.15948930836051672
6	0.2	-2.5720120340210513	0.8449724228926127	0.385874632029994	-2.561729921282274	0.8175854270296783	0.48053287272188133	-2.5640167772659503	0.44908697663113933	0.491587625547416	-2.5627451946906157	0.09900154565588297	0.5113764490157217	-2.4203951822480927	-0.008252378603838352	0.5270262629126116	-2.4615264518508835	-0.011294650669701752	0.5968300819339217	-2.6656725154081466	-0.006884199541231409	0.4919370447855673	-2.566042097643474	0.8138716178330503	0.2990265085214992	-2.539738509830893	0.46027404485239154	0.28759630578203127	-2.5654682597403027	0.08872001591303233	0.27843328960748204	-2.3740714616307397	-0.0017485034663902335	0.27658333505091426	-2.4150623986631077	-0.005024445565370525	0.206301838119848	-2.6161455164710414	0.007618685677420239	0.29945838599204205	-2.555757259339104	1.5310591085879668	0.3389501460152804	-2.4992319789200907	1.7907486067026548	0.36773238411369014	-2.4236854492634423	1.6680010492107828	0.33498007324903123	-2.58460887893059	1.4224408526777834	0.5205013947589929	-2.5347330057647346	1.1020448785636958	0.6114872227369872	-2.463641050747921	0.8594005652449074	0.6036530558507579	-2.609727914040592	1.42764499497427	0.12866154534539534	-2.5444458843331423	1.1070234541396236	0.1415969260953393	-2.4774284433905267	0.8630233772059116	0.15670253915252097
7	0.2333333333333333	-2.5715348741771153	0.844396023506462	0.38313630748600275	-2.5604628388615547	0.8179319039271088	0.4780572995381105	-2.568430610252796	0.45070050863566713	0.48619319303988956	-2.5620624227450306	0.09897316492068071	0.5115456085820853	-2.419787302892465	-0.008592473669245862	0.5271478782576828	-2.4605485204728255	-0.011451768536608743	0.5969168879283956	-2.6652290801712875	-0.0070752641829579035	0.49176903493783397	-2.565136142309323	0.8138367484073776	0.2961508874084714	-2.5384597248332743	0.4602469955561993	0.2862777067663773	-2.5645620419820583	0.08848894173686092	0.2792723916117812	-2.373772614209425	-0.0014935839902097815	0.27603671529776297	-2.414689128386212	-0.004275358647138613	0.206293728118022	-2.616091827101847	0.007136243059535957	0.29905635441280354	-2.553664871873274	1.5309689292668105	0.33604143045402435	-2.4980435216051764	1.791091808287984	0.3635905759365879	-2.4220298946045737	1.6681910470982586	0.33213070436527015	-2.5829106330838583	1.422476148533103	0.517359994156218	-2.532874133424722	1.1019754867986586	0.6091238157291106	-2.462566788422446	0.858933655498321	0.6023094704562856	-2.6083115743190373	1.42712469319261	0.12494344936141674	-2.5442077045730622	1.1062502939839463	0.1380247834119798	-2.4773525109560075	0.862209102397408	0.1535865938924598
8	0.2666666666666666	-2.5705592572012224	0.843641999965325	0.37967353704364953	-2.5583416706448086	0.8179813873348947	0.47484544665406153	-2.5721920623226273	0.45288927350371255	0.4792271590879602	-2.562199006491213	0.09791626425281384	0.5112668445498598	-2.4191285362390906	-0.008563129214606691	0.5276656972533175	-2.4594410470773287	-0.011647972242665162	0.5971854536333021	-2.6615067830034924	-0.005934534461616581	0.4914957963256495	-2.5638238817619365	0.813606221274762	0.2925562058407779	-2.5373496981675547	0.4599094267437315	0.28452806978291834	-2.5643373606573334	0.08797052771416433	0.2790130554667789	-2.3736701572535903	-0.001362184713942294	0.27562521951061736	-2.4143010940931764	-0.0037509161205486756	0.20634492524987508	-2.616007654858975	0.006604618122406727	0.29827127369358564	-2.551244435391602	1.5309916168760607	0.3325889306934957	-2.497227074491811	1.7914562780811258	0.3580355990414005	-2.419957505366551	1.6687031613117174	0.32858501742569296	-2.580752554168541	1.4224294768226409	0.5139857711402482	-2.531253965116329	1.1018799698479074	0.6049938323459598	-2.461004428323501	0.8586629749506991	0.6006242474064618	-2.6061257227513233	1.4264602528743253	0.12134147356015286	-2.5440322212201174	1.105319347876956	0.1338981526879013	-2.4775717397597545	0.8612579971536033	0.15004687864034402
9	0.3	-2.569061633952389	0.8428860890503624	0.3755052603238745	-2.555402760727053	0.8178272216474064	0.4707652153359393	-2.572690238082583	0.45539182226191216	0.4724645578764814	-2.5634188367342206	0.09585610245307155	0.5104634146412664	-2.418676510279612	-0.00807814775595093	0.5281444902659063	-2.4584082823996485	-0.011807177293376981	0.5974629897019791	-2.654667440376431	-0.003776485075043352	0.49110899276841835	-2.562075711111667	0.8133452561685445	0.2882181147263048	-2.5363093749606906	0.45922780542363	0.28221155416867144	-2.5646982579753823	0.08727523954247181	0.277810797798379	-2.3736915784039865	-0.001323861232098299	0.27548025049478886	-2.413983956432727	-0.003464802546752122	0.2064191089376608	-2.6158733882243785	0.006051271754902232	0.29722907227975665	-2.5485131350640766	1.5310600635639062	0.32844082798664526	-2.496247839571041	1.7917375126172828	0.3512389238802531	-2.4173201123102723	1.6691959938791248	0.3246296097441002	-2.5781415458058214	1.4221843632514375	0.51023420857085	-2.5296845986898937	1.1018165754013984	0.5994199019412316	-2.4588207058553646	0.8586380494884451	0.5984981617040294	-2.6036923834483825	1.4259746474408932	0.11721325764102193	-2.5438427397502363	1.1043552126080074	0.12918780858085419	-2.477966539668564	0.8602261349052676	0.1459410885010719
